<?xml version="1.0" standalone="no"?>
<!DOCTYPE svg PUBLIC "-//W3C//DTD SVG 20010904//EN"
 "http://www.w3.org/TR/2001/REC-SVG-20010904/DTD/svg10.dtd">
<svg version="1.0" xmlns="http://www.w3.org/2000/svg"
 width="500.000000pt" height="500.000000pt" viewBox="0 0 500.000000 500.000000"
 preserveAspectRatio="xMidYMid meet">

<g transform="translate(0.000000,500.000000) scale(0.100000,-0.100000)"
fill="#000000" stroke="none">
<path d="M2238 4469 c-319 -28 -655 -147 -924 -327 -217 -146 -387 -315 -544
-541 -41 -60 -105 -146 -141 -192 -156 -196 -263 -414 -329 -664 -48 -184 -55
-245 -55 -470 1 -226 14 -323 70 -518 156 -536 595 -1010 1136 -1227 349 -139
756 -182 1086 -114 201 41 418 134 571 244 46 33 85 60 86 60 2 0 6 -37 8 -82
5 -95 24 -140 71 -168 30 -19 52 -20 380 -20 l348 0 42 39 42 40 3 110 4 111
64 0 c62 0 67 2 107 39 l42 40 3 918 c2 645 -1 926 -9 944 -6 15 -24 40 -40
55 l-30 29 -859 0 -858 0 -27 -25 c-46 -43 -55 -72 -55 -173 l0 -95 -70 -4
c-66 -3 -73 -6 -108 -41 l-37 -37 -3 -293 c-3 -292 -3 -293 20 -327 44 -65 65
-70 328 -71 252 0 257 -3 100 -41 -115 -29 -332 -30 -435 -4 -152 40 -308 129
-411 237 -76 81 -116 140 -164 242 -106 226 -125 488 -54 735 35 119 48 139
138 199 158 106 330 149 551 140 298 -13 465 -86 665 -289 53 -53 109 -102
124 -108 17 -6 187 -10 467 -10 477 0 482 1 507 55 21 45 14 90 -26 169 l-38
76 108 0 c121 0 156 11 176 55 23 51 14 91 -46 208 -130 249 -270 447 -431
608 -307 306 -648 451 -1151 489 -151 11 -272 11 -402 -1z m572 -34 c404 -60
693 -200 956 -460 175 -173 322 -381 448 -632 54 -108 59 -151 21 -188 -23
-24 -30 -25 -143 -25 l-118 0 -68 114 c-298 500 -677 786 -1176 885 -703 139
-1350 -17 -1845 -446 -98 -85 -94 -73 31 77 311 375 780 625 1294 690 106 13
475 4 600 -15z m-220 -300 c295 -46 516 -128 735 -272 194 -129 421 -384 573
-645 l52 -88 -310 0 c-191 0 -319 4 -337 11 -15 5 -75 56 -133 113 -116 115
-165 150 -274 202 -116 55 -239 77 -441 77 -144 0 -182 -3 -250 -21 -244 -67
-447 -232 -563 -457 -11 -22 -35 -53 -52 -70 -83 -78 -172 -219 -214 -341 -43
-123 -58 -219 -58 -364 0 -210 45 -380 143 -539 183 -298 494 -448 853 -411
292 30 497 148 622 358 l25 42 -32 0 c-31 0 -30 2 37 49 84 59 110 86 169 176
l46 70 -331 5 -330 5 -32 33 -33 32 -3 180 -3 180 771 0 770 0 38 -34 37 -34
3 -817 2 -816 -269 3 c-254 3 -271 4 -298 24 -49 36 -63 78 -63 187 l0 99 -47
-40 c-267 -222 -665 -347 -1048 -328 -908 45 -1648 661 -1832 1525 -25 115
-27 145 -27 351 0 206 2 236 27 351 55 261 166 518 271 628 302 317 745 534
1206 591 108 13 476 4 600 -15z m20 -625 c236 -27 385 -102 560 -280 53 -55
109 -104 124 -110 17 -6 151 -10 347 -10 l319 0 40 -80 c48 -95 52 -139 15
-175 l-24 -25 -446 0 c-311 0 -453 3 -468 11 -12 6 -69 58 -127 114 -221 216
-383 278 -720 278 -138 0 -178 -3 -245 -22 -91 -24 -203 -75 -271 -122 -43
-29 -45 -30 -34 -8 30 58 103 150 168 211 195 183 443 255 762 218z m-1976
-147 c-115 -263 -161 -454 -171 -713 -24 -611 256 -1188 761 -1567 495 -372
1158 -496 1706 -321 164 52 306 128 478 254 l22 16 0 -91 c0 -105 13 -141 63
-171 30 -19 52 -20 305 -20 l272 0 0 -96 c0 -80 -4 -102 -20 -130 -39 -62 -65
-65 -422 -62 -302 3 -318 4 -345 24 -49 36 -63 78 -63 186 l0 97 -91 -69
c-385 -289 -902 -371 -1438 -229 -686 182 -1217 716 -1385 1394 -62 250 -61
592 4 843 31 125 87 277 140 382 44 87 184 310 196 310 2 0 -3 -17 -12 -37z
m941 -489 c-47 -163 -50 -395 -6 -565 71 -278 251 -499 498 -611 203 -91 490
-96 723 -12 69 24 130 32 130 15 0 -21 -98 -138 -152 -181 -77 -62 -191 -117
-307 -147 -126 -33 -346 -38 -456 -9 -151 40 -272 105 -377 204 -128 121 -216
272 -264 457 -24 88 -27 119 -27 255 0 136 3 167 27 255 28 106 84 234 137
313 34 50 92 120 97 117 1 -1 -9 -42 -23 -91z m2655 -130 c64 -38 60 19 60
-979 0 -1016 5 -950 -73 -986 -23 -10 -61 -19 -84 -19 l-43 0 0 805 c0 874 3
831 -55 885 l-27 25 -779 3 -779 2 0 91 c0 102 14 145 58 171 25 16 93 17 860
18 754 0 837 -2 862 -16z m-1798 -463 c3 -163 5 -182 24 -208 44 -61 59 -63
387 -63 167 0 297 -4 297 -9 0 -17 -87 -127 -131 -165 -24 -20 -70 -53 -101
-72 l-57 -35 -275 3 -276 3 -32 33 -33 32 -3 283 c-3 254 -2 285 14 315 24 45
58 61 126 62 l57 0 3 -179z"/>
</g>
</svg>
